<?xml version="1.0" encoding="UTF-8"?>
<!-- Generator: Adobe Illustrator 16.0.0, SVG Export Plug-In . SVG Version: 6.00 Build 0)  -->
<!DOCTYPE svg PUBLIC "-//W3C//DTD SVG 1.1//EN" "http://www.w3.org/Graphics/SVG/1.1/DTD/svg11.dtd">
<svg version="1.1" id="Layer_1" xmlns="http://www.w3.org/2000/svg" xmlns:xlink="http://www.w3.org/1999/xlink" x="0px" y="0px" width="300px" height="150px" viewBox="0 0 300 150" enable-background="new 0 0 300 150" xml:space="preserve">
<rect fill="#2B2B2B" width="300" height="150"/>
<circle fill="#2B2B2B" cx="-170.04" cy="78.738" r="149.989"/>
<g>
	<path fill="#FFFFFF" d="M50.995,41.87H39.835v-8.28h32.339v8.28H61.015v26.938H50.995V41.87z"/>
	<g>
		<polygon fill="#FFFFFF" points="80.446,33.703 90.465,33.703 90.465,46.843 97.545,46.843 97.545,33.703 107.565,33.703     107.565,68.922 97.545,68.922 97.545,55.183 90.465,55.183 90.465,68.922 80.446,68.922   "/>
		<polygon fill="#FFFFFF" points="80.446,80.703 90.465,80.703 90.465,93.843 97.545,93.843 97.545,80.703 107.565,80.703     107.565,115.922 97.545,115.922 97.545,102.183 90.465,102.183 90.465,115.922 80.446,115.922   "/>
	</g>
	<path fill="#FFFFFF" d="M126.846,33.59h10.319l12.239,35.219h-10.499l-2.04-6.6h-9.9l-1.979,6.6h-10.38L126.846,33.59z    M128.826,54.529h6.12l-1.08-3.72l-1.98-8.16l-1.979,8.16L128.826,54.529z M115.806,98.169c0-10.859,4.86-18.179,16.199-18.179   c11.279,0,16.199,6.899,16.199,18.179c0,10.859-4.859,18.24-16.199,18.24C120.726,116.409,115.806,109.448,115.806,98.169z    M137.885,98.169c0-6.779-1.14-9.659-5.88-9.659c-4.739,0-5.88,2.88-5.88,9.659c0,6.78,1.141,9.721,5.88,9.721   C136.746,107.89,137.885,104.949,137.885,98.169z"/>
	<g>
		<polygon fill="#FFFFFF" points="164.997,41.87 153.836,41.87 153.836,33.59 186.175,33.59 186.175,41.87 175.017,41.87     175.017,68.809 164.997,68.809   "/>
		<path fill="#FFFFFF" d="M155.787,102.188V80.59h10.019v21.599c0,4.5,1.561,5.701,4.199,5.701c2.641,0,4.201-1.201,4.201-5.701    V80.59h10.02v21.599c0,8.76-4.381,14.221-14.34,14.221C159.866,116.409,155.787,110.948,155.787,102.188z"/>
	</g>
	<g>
		<path fill="#FFFFFF" d="M191.896,51.771c0-11.641,4.861-18.479,16.98-18.479c10.318,0,14.639,4.919,15.238,14.999h-10.26    c-0.238-4.379-1.5-6.479-5.699-6.479c-4.799,0-5.939,2.76-5.939,9.659c0,6.9,1.141,9.721,6.119,9.721c4.08,0,5.281-1.92,5.52-6.48    h10.26c-0.779,9.479-4.979,15-15.779,15C196.276,69.71,191.896,62.87,191.896,51.771z"/>
		<path fill="#FFFFFF" d="M192.886,104.709h9.301c0.299,2.939,2.039,4.199,5.939,4.199c3.6,0,4.979-1.08,4.979-2.52    c0-1.561-1.5-2.1-4.26-3l-7.318-2.4c-4.02-1.319-7.801-4.079-7.801-9.779c0-7.26,6.24-10.919,14.52-10.919    c9.66,0,14.1,4.919,14.34,11.759h-9.359c-0.359-2.34-1.32-3.899-5.039-3.899c-2.701,0-4.5,0.841-4.5,2.399    c0,1.32,1.379,1.92,2.818,2.4l7.74,2.58c4.32,1.439,8.879,3.72,8.879,10.02c0,7.74-6.779,11.16-15.539,11.16    C197.146,116.709,192.886,111.849,192.886,104.709z"/>
	</g>
	<g>
		<polygon fill="#FFFFFF" points="232.745,33.891 242.765,33.891 242.765,47.03 249.845,47.03 249.845,33.891 259.864,33.891     259.864,69.109 249.845,69.109 249.845,55.37 242.765,55.37 242.765,69.109 232.745,69.109   "/>
		<polygon fill="#FFFFFF" points="232.446,80.891 260.165,80.891 260.165,89.171 242.466,89.171 242.466,94.091 257.165,94.091     257.165,102.37 242.466,102.37 242.466,107.829 260.165,107.829 260.165,116.109 232.446,116.109   "/>
	</g>
	<rect x="51.005" y="105.855" fill="#FFFFFF" width="10.021" height="9.953"/>
</g>
<g>
	<path fill="#FFFFFF" d="M-269.045,47.074h-11.159v-8.28h32.339v8.28h-11.159v26.938h-10.021V47.074z"/>
	<g>
		<polygon fill="#FFFFFF" points="-239.594,38.907 -229.574,38.907 -229.574,52.047 -222.494,52.047 -222.494,38.907     -212.475,38.907 -212.475,74.126 -222.494,74.126 -222.494,60.387 -229.574,60.387 -229.574,74.126 -239.594,74.126   "/>
		<polygon fill="#FFFFFF" points="-239.594,85.907 -229.574,85.907 -229.574,99.047 -222.494,99.047 -222.494,85.907     -212.475,85.907 -212.475,121.126 -222.494,121.126 -222.494,107.387 -229.574,107.387 -229.574,121.126 -239.594,121.126   "/>
	</g>
	<path fill="#FFFFFF" d="M-193.193,38.794h10.319l12.239,35.219h-10.499l-2.04-6.6h-9.9l-1.979,6.6h-10.38L-193.193,38.794z    M-191.214,59.733h6.12l-1.08-3.72l-1.98-8.16l-1.979,8.16L-191.214,59.733z M-204.233,103.373c0-10.859,4.86-18.179,16.199-18.179   c11.279,0,16.199,6.899,16.199,18.179c0,10.859-4.859,18.24-16.199,18.24C-199.313,121.613-204.233,114.652-204.233,103.373z    M-182.154,103.373c0-6.779-1.14-9.659-5.88-9.659c-4.739,0-5.88,2.88-5.88,9.659c0,6.78,1.141,9.721,5.88,9.721   C-183.294,113.094-182.154,110.153-182.154,103.373z"/>
	<g>
		<polygon fill="#FFFFFF" points="-155.043,47.074 -166.203,47.074 -166.203,38.794 -133.864,38.794 -133.864,47.074     -145.023,47.074 -145.023,74.013 -155.043,74.013   "/>
		<path fill="#FFFFFF" d="M-164.253,107.393V85.794h10.02v21.599c0,4.5,1.56,5.701,4.199,5.701s4.2-1.201,4.2-5.701V85.794h10.02    v21.599c0,8.76-4.38,14.221-14.34,14.221C-160.174,121.613-164.253,116.152-164.253,107.393z"/>
	</g>
	<g>
		<path fill="#FFFFFF" d="M-128.144,56.975c0-11.641,4.86-18.479,16.979-18.479c10.319,0,14.64,4.919,15.239,14.999h-10.26    c-0.239-4.379-1.5-6.479-5.699-6.479c-4.8,0-5.94,2.76-5.94,9.659c0,6.9,1.141,9.721,6.12,9.721c4.08,0,5.28-1.92,5.52-6.48h10.26    c-0.78,9.479-4.979,15-15.779,15C-123.764,74.914-128.144,68.074-128.144,56.975z"/>
		<path fill="#FFFFFF" d="M-127.153,109.913h9.3c0.3,2.939,2.04,4.199,5.939,4.199c3.6,0,4.979-1.08,4.979-2.52    c0-1.561-1.5-2.1-4.26-3l-7.319-2.4c-4.02-1.319-7.8-4.079-7.8-9.779c0-7.26,6.24-10.919,14.52-10.919    c9.659,0,14.1,4.919,14.34,11.759h-9.36c-0.359-2.34-1.319-3.899-5.039-3.899c-2.7,0-4.5,0.841-4.5,2.399    c0,1.32,1.38,1.92,2.819,2.4l7.74,2.58c4.319,1.439,8.879,3.72,8.879,10.02c0,7.74-6.779,11.16-15.539,11.16    C-122.894,121.913-127.153,117.053-127.153,109.913z"/>
	</g>
	<g>
		<polygon fill="#FFFFFF" points="-87.294,39.095 -77.274,39.095 -77.274,52.234 -70.194,52.234 -70.194,39.095 -60.175,39.095     -60.175,74.313 -70.194,74.313 -70.194,60.574 -77.274,60.574 -77.274,74.313 -87.294,74.313   "/>
		<polygon fill="#FFFFFF" points="-87.594,86.095 -59.875,86.095 -59.875,94.375 -77.574,94.375 -77.574,99.295 -62.874,99.295     -62.874,107.574 -77.574,107.574 -77.574,113.033 -59.875,113.033 -59.875,121.313 -87.594,121.313   "/>
	</g>
	<rect x="-269.034" y="111.06" fill="#FFFFFF" width="10.021" height="9.953"/>
</g>
<rect x="320" y="-71" fill="#2B2B2B" width="528" height="112"/>
<path fill="#FFFFFF" d="M371.149-23.925H359.99v-8.28h32.339v8.28H381.17V3.013h-10.021V-23.925z"/>
<polygon fill="#FFFFFF" points="400.601,-32.092 410.62,-32.092 410.62,-18.953 417.7,-18.953 417.7,-32.092 427.72,-32.092   427.72,3.126 417.7,3.126 417.7,-10.613 410.62,-10.613 410.62,3.126 400.601,3.126 "/>
<polygon fill="#FFFFFF" points="628.934,-31.941 638.953,-31.941 638.953,-18.802 646.033,-18.802 646.033,-31.941 656.053,-31.941   656.053,3.277 646.033,3.277 646.033,-10.462 638.953,-10.462 638.953,3.277 628.934,3.277 "/>
<path fill="#FFFFFF" d="M447.001-32.206h10.319L469.56,3.013h-10.499l-2.04-6.6h-9.9l-1.979,6.6h-10.38L447.001-32.206z   M448.98-11.266h6.12l-1.08-3.72l-1.98-8.16l-1.979,8.16L448.98-11.266z"/>
<path fill="#FFFFFF" d="M664.294-14.476c0-10.859,4.86-18.179,16.199-18.179c11.279,0,16.199,6.899,16.199,18.179  c0,10.859-4.859,18.24-16.199,18.24C669.214,3.765,664.294-3.196,664.294-14.476z M686.373-14.476c0-6.779-1.14-9.659-5.88-9.659  c-4.739,0-5.88,2.88-5.88,9.659c0,6.78,1.141,9.721,5.88,9.721C685.233-4.755,686.373-7.695,686.373-14.476z"/>
<polygon fill="#FFFFFF" points="485.151,-23.925 473.991,-23.925 473.991,-32.206 506.33,-32.206 506.33,-23.925 495.171,-23.925   495.171,3.013 485.151,3.013 "/>
<path fill="#FFFFFF" d="M704.274-10.456v-21.599h10.02v21.599c0,4.5,1.56,5.701,4.199,5.701s4.2-1.201,4.2-5.701v-21.599h10.02  v21.599c0,8.76-4.38,14.221-14.34,14.221C708.354,3.765,704.274-1.696,704.274-10.456z"/>
<path fill="#FFFFFF" d="M512.051-14.025c0-11.641,4.86-18.479,16.979-18.479c10.319,0,14.64,4.919,15.239,14.999h-10.26  c-0.239-4.379-1.5-6.479-5.699-6.479c-4.8,0-5.94,2.76-5.94,9.659c0,6.9,1.141,9.721,6.12,9.721c4.08,0,5.28-1.92,5.52-6.48h10.26  c-0.78,9.479-4.979,15-15.779,15C516.431,3.915,512.051-2.925,512.051-14.025z"/>
<path fill="#FFFFFF" d="M741.374-7.936h9.3c0.3,2.939,2.04,4.199,5.939,4.199c3.6,0,4.979-1.08,4.979-2.52c0-1.561-1.5-2.1-4.26-3  l-7.319-2.4c-4.02-1.319-7.8-4.079-7.8-9.779c0-7.26,6.24-10.919,14.52-10.919c9.659,0,14.1,4.919,14.34,11.759h-9.36  c-0.359-2.34-1.319-3.899-5.039-3.899c-2.7,0-4.5,0.841-4.5,2.399c0,1.32,1.38,1.92,2.819,2.4l7.74,2.58  c4.319,1.439,8.879,3.72,8.879,10.02c0,7.74-6.779,11.16-15.539,11.16C745.634,4.064,741.374-0.796,741.374-7.936z"/>
<polygon fill="#FFFFFF" points="552.9,-31.905 562.92,-31.905 562.92,-18.765 570,-18.765 570,-31.905 580.02,-31.905 580.02,3.314   570,3.314 570,-10.425 562.92,-10.425 562.92,3.314 552.9,3.314 "/>
<polygon fill="#FFFFFF" points="780.934,-31.754 808.652,-31.754 808.652,-23.474 790.953,-23.474 790.953,-18.554 805.653,-18.554   805.653,-10.274 790.953,-10.274 790.953,-4.815 808.652,-4.815 808.652,3.465 780.934,3.465 "/>
<rect x="599.493" y="-6.789" fill="#FFFFFF" width="10.021" height="9.953"/>
<g>
</g>
<g>
</g>
<g>
</g>
<g>
</g>
<g>
</g>
<g>
</g>
<g>
</g>
<g>
</g>
<g>
</g>
<g>
</g>
<g>
</g>
<g>
</g>
<g>
</g>
<g>
</g>
<g>
</g>
</svg>